<?xml version="1.0" encoding="UTF-8"?>
<svg id="Layer_6" data-name="Layer 6" xmlns="http://www.w3.org/2000/svg" viewBox="0 0 283.46 283.46">
  <defs>
    <style>
      .cls-1 {
        stroke-dasharray: 3.04 3.04;
      }

      .cls-1, .cls-2, .cls-3, .cls-4, .cls-5, .cls-6, .cls-7, .cls-8, .cls-9, .cls-10, .cls-11, .cls-12, .cls-13, .cls-14 {
        fill: none;
        stroke: #fff;
        stroke-linecap: round;
        stroke-linejoin: round;
      }

      .cls-2 {
        stroke-dasharray: 2.89 2.89;
      }

      .cls-3 {
        stroke-dasharray: 2.82 2.82;
      }

      .cls-4 {
        stroke-dasharray: 2.86 2.86;
      }

      .cls-5 {
        stroke-dasharray: 2.59 2.59;
      }

      .cls-6 {
        stroke-dasharray: 2.59 2.59;
      }

      .cls-7 {
        stroke-dasharray: 3 3;
      }

      .cls-8 {
        stroke-dasharray: 3.07 3.07;
      }

      .cls-9 {
        stroke-dasharray: 2.88 2.88;
      }

      .cls-10 {
        stroke-dasharray: 2.95 2.95;
      }

      .cls-12 {
        stroke-dasharray: 3 3;
      }

      .cls-13 {
        stroke-dasharray: 3.09 3.09;
      }

      .cls-14 {
        stroke-dasharray: 2.97 2.97;
      }
    </style>
  </defs>
  <g>
    <g>
      <line class="cls-11" x1="168.86" y1="152.46" x2="167.36" y2="152.46"/>
      <line class="cls-5" x1="164.77" y1="152.46" x2="150.53" y2="152.46"/>
      <polyline class="cls-11" points="149.23 152.46 147.73 152.46 146.94 151.19"/>
      <line class="cls-8" x1="145.32" y1="148.58" x2="120.22" y2="108.19"/>
      <polyline class="cls-11" points="119.41 106.88 118.62 105.61 117.85 106.89"/>
      <line class="cls-13" x1="116.25" y1="109.54" x2="91.51" y2="150.56"/>
      <polyline class="cls-11" points="90.71 151.88 89.93 153.17 89.23 151.84"/>
      <line class="cls-9" x1="87.89" y1="149.29" x2="69.75" y2="114.94"/>
      <polyline class="cls-11" points="69.08 113.67 68.38 112.34 69.11 111.03"/>
      <line class="cls-12" x1="70.56" y1="108.41" x2="116.33" y2="25.75"/>
      <line class="cls-11" x1="117.06" y1="24.44" x2="117.78" y2="23.13"/>
    </g>
    <g>
      <line class="cls-11" x1="147.73" y1="152.46" x2="148.47" y2="151.16"/>
      <line class="cls-2" x1="149.88" y1="148.64" x2="168.96" y2="114.63"/>
      <polyline class="cls-11" points="169.67 113.37 170.4 112.06 171.9 112.06"/>
      <line class="cls-3" x1="174.72" y1="112.06" x2="212.73" y2="112.06"/>
      <polyline class="cls-11" points="214.14 112.06 215.64 112.06 214.9 113.37"/>
      <line class="cls-4" x1="213.49" y1="115.86" x2="205.72" y2="129.54"/>
      <line class="cls-11" x1="205.01" y1="130.78" x2="204.27" y2="132.09"/>
    </g>
    <g>
      <line class="cls-11" x1="215.64" y1="112.06" x2="214.9" y2="110.76"/>
      <line class="cls-7" x1="213.43" y1="108.14" x2="166.84" y2="25.74"/>
      <polyline class="cls-11" points="166.1 24.43 165.37 23.13 163.87 23.13"/>
      <line class="cls-14" x1="160.89" y1="23.13" x2="120.77" y2="23.13"/>
      <polyline class="cls-11" points="119.28 23.13 117.78 23.13 118.55 24.42"/>
      <line class="cls-1" x1="120.1" y1="27.03" x2="168.87" y2="109.46"/>
      <line class="cls-11" x1="169.64" y1="110.77" x2="170.4" y2="112.06"/>
    </g>
    <g>
      <line class="cls-11" x1="89.93" y1="153.17" x2="91.43" y2="153.17"/>
      <line class="cls-10" x1="94.38" y1="153.17" x2="134.17" y2="153.17"/>
      <polyline class="cls-11" points="135.65 153.17 137.15 153.17 137.86 151.85"/>
      <line class="cls-6" x1="139.11" y1="149.58" x2="140.97" y2="146.18"/>
      <line class="cls-11" x1="141.59" y1="145.04" x2="142.31" y2="143.73"/>
    </g>
  </g>
  <g>
    <polyline class="cls-11" points="162.88 180.27 153.68 180.27 176.42 220.67 277.61 220.67"/>
    <polyline class="cls-11" points="176.42 220.67 153.68 260.34 254.51 260.34 277.61 220.89 226.91 132.09 181.25 132.09 158.26 172.07 162.88 180.27 208.54 180.27 181.25 132.09"/>
    <polyline class="cls-11" points="152.6 220.67 98.96 220.67 121.21 180.27 129.92 180.27 152.6 220.67 130.97 260.34 29.48 260.34 5.86 220.31 56.35 132.72 79.23 172.07 29.19 259.86"/>
    <polyline class="cls-11" points="121.21 180.27 125.83 172.38 79.23 172.38"/>
    <line class="cls-11" x1="125.83" y1="171.86" x2="115.23" y2="154.29"/>
    <line class="cls-11" x1="153.68" y1="260.34" x2="141.79" y2="240.5"/>
    <line class="cls-11" x1="153.68" y1="180.27" x2="141.79" y2="201.41"/>
    <line class="cls-11" x1="56.35" y1="132.72" x2="78.18" y2="132.72"/>
  </g>
</svg>